<?xml version="1.0" encoding="UTF-8" standalone="no"?>
<svg width="80px" height="80px" viewBox="0 0 80 80" version="1.1" xmlns="http://www.w3.org/2000/svg" xmlns:xlink="http://www.w3.org/1999/xlink" xmlns:sketch="http://www.bohemiancoding.com/sketch/ns">
    <!-- Generator: Sketch 3.2.2 (9983) - http://www.bohemiancoding.com/sketch -->
    <title>80 - Spotlight</title>
    <desc>Created with Sketch.</desc>
    <defs></defs>
    <g id="Page-1" stroke="none" stroke-width="1" fill="none" fill-rule="evenodd" sketch:type="MSPage">
        <g id="80---Spotlight" sketch:type="MSArtboardGroup">
            <circle id="Oval-6" fill="#00BEDD" sketch:type="MSShapeGroup" cx="39.5" cy="39.5" r="35.5"></circle>
            <path d="M53.4038462,16 L26.0961538,16 C23.8432692,16 22,17.8432692 22,20.0961538 L22,55.5961538 C22,57.8490385 23.8432692,59.6923077 26.0961538,59.6923077 L53.4038462,59.6923077 C55.6567308,59.6923077 57.5,57.8490385 57.5,55.5961538 L57.5,20.0961538 C57.5,17.8432692 55.6567308,16 53.4038462,16 L53.4038462,16 Z M39.75,58.3269231 C38.9963077,58.3269231 38.3846154,57.7152308 38.3846154,56.9615385 C38.3846154,56.2078462 38.9963077,55.5961538 39.75,55.5961538 C40.5036923,55.5961538 41.1153846,56.2078462 41.1153846,56.9615385 C41.1153846,57.7152308 40.5036923,58.3269231 39.75,58.3269231 L39.75,58.3269231 Z M52.0384615,54.2307692 L27.4615385,54.2307692 L27.4615385,21.4615385 L52.0384615,21.4615385 L52.0384615,54.2307692 L52.0384615,54.2307692 Z" id="Shape" fill="#FFFFFF" sketch:type="MSShapeGroup"></path>
        </g>
    </g>
</svg>