<?xml version="1.0" encoding="UTF-8" standalone="no"?>
<svg width="80px" height="80px" viewBox="0 0 80 80" version="1.1" xmlns="http://www.w3.org/2000/svg" xmlns:xlink="http://www.w3.org/1999/xlink" xmlns:sketch="http://www.bohemiancoding.com/sketch/ns">
    <!-- Generator: Sketch 3.2.2 (9983) - http://www.bohemiancoding.com/sketch -->
    <title>80 - Spotlight</title>
    <desc>Created with Sketch.</desc>
    <defs></defs>
    <g id="Page-1" stroke="none" stroke-width="1" fill="none" fill-rule="evenodd" sketch:type="MSPage">
        <g id="80---Spotlight" sketch:type="MSArtboardGroup">
            <circle id="Oval-6" fill="#00BEDD" sketch:type="MSShapeGroup" cx="39.5" cy="39.5" r="35.5"></circle>
            <path d="M49.8,16 L30.2,16 C27.89,16 26,17.8984375 26,20.21875 L26,56.78125 C26,59.1015625 27.89,61 30.2,61 L49.8,61 C52.11,61 54,59.1015625 54,56.78125 L54,20.21875 C54,17.8984375 52.11,16 49.8,16 L49.8,16 Z M34.4,18.109375 L45.6,18.109375 L45.6,19.515625 L34.4,19.515625 L34.4,18.109375 L34.4,18.109375 Z M40,58.1875 C38.453,58.1875 37.2,56.9289062 37.2,55.375 C37.2,53.8210938 38.453,52.5625 40,52.5625 C41.547,52.5625 42.8,53.8210938 42.8,55.375 C42.8,56.9289062 41.547,58.1875 40,58.1875 L40,58.1875 Z M51.2,49.75 L28.8,49.75 L28.8,21.625 L51.2,21.625 L51.2,49.75 L51.2,49.75 Z" id="Shape" fill="#FFFFFF" sketch:type="MSShapeGroup"></path>
        </g>
    </g>
</svg>